<!-- icon666.com - MILLIONS vector ICONS FREE --><svg viewBox="0 0 511.44937 511" xmlns="http://www.w3.org/2000/svg"><path d="m502.917969 101.355469v341.335937h-1.878907l-23.722656-8.191406-59.734375-20.652344v-261.289062c0-14.140625-11.460937-25.601563-25.597656-25.601563h-34.136719l70.230469-84.394531.769531-.9375h14.335938c15.839844 0 31.035156 6.292969 42.238281 17.492188 11.199219 11.203124 17.496094 26.398437 17.496094 42.238281zm0 0" fill="#a4c2f7"></path><path d="m477.316406 101.355469v333.144531l-59.734375-20.652344v-261.289062c0-14.140625-11.460937-25.601563-25.597656-25.601563h-34.136719l70.230469-84.394531c28.488281 5.085938 49.234375 29.855469 49.238281 58.792969zm0 0" fill="#e3e7f2"></path><path d="m443.183594 502.421875h-85.335938v-34.132813l80.53125-13.328124zm0 0" fill="#a4c2f7"></path><path d="m443.183594 289.089844v104.277344l-25.601563-.597657-59.734375-1.28125v-51.199219c0-37.703124-30.5625-68.265624-68.265625-68.265624h-82.941406l32.679687-85.332032h101.460938c56.554688 0 102.402344 45.84375 102.402344 102.398438zm0 0" fill="#a4c2f7"></path><path d="m502.917969 459.757812v42.664063h-85.335938c.011719-9.054687-3.582031-17.742187-9.984375-24.148437-6.402344-6.402344-15.09375-9.996094-24.148437-9.984376h-119.464844l45.394531-85.332031h116.738282c5.738281.011719 11.460937.640625 17.066406 1.878907 28.753906 6.648437 51.203125 29.101562 57.855468 57.855468 1.238282 5.605469 1.867188 11.324219 1.878907 17.066406zm0 0" fill="#a4c2f7"></path><path d="m417.582031 289.089844v103.679687l-59.734375-1.28125v-51.199219c0-37.703124-30.5625-68.265624-68.265625-68.265624h-82.941406l32.679687-85.332032h75.863282c56.554687 0 102.398437 45.84375 102.398437 102.398438zm0 0" fill="#e3e7f2"></path><path d="m477.316406 459.757812v42.664063h-59.734375c.011719-9.054687-3.582031-17.742187-9.984375-24.148437-6.402344-6.402344-15.09375-9.996094-24.148437-9.984376h-119.464844l45.394531-85.332031h91.136719c5.742187.011719 11.460937.640625 17.066406 1.878907 28.753907 6.648437 51.207031 29.101562 57.855469 57.855468 1.238281 5.605469 1.867188 11.324219 1.878906 17.066406zm0 0" fill="#e3e7f2"></path><path d="m426.585938 96.320312c-5.339844 18.171876-22.019532 30.648438-40.960938 30.636719h-121.640625c-18.851563 0-34.136719-15.28125-34.136719-34.132812h-8.53125c-9.425781 0-17.066406-7.640625-17.066406-17.066407v-59.734374c0-1.617188.914062-3.09375 2.359375-3.816407 1.445313-.722656 3.171875-.566406 4.464844.402344l22.453125 25.601563c3.828125 2.871093 8.683594 4.003906 13.390625 3.121093 27.691406-6.054687 54.945312-13.964843 81.578125-23.671875 7.976562-2.695312 16.132812-4.824218 24.414062-6.363281 16.960938-3.082031 35.839844-4.882813 51.367188 3.882813 18.535156 10.421874 30.109375 29.9375 30.363281 51.199218.003906 1.707032-.246094 3.410156-.742187 5.042969zm0 0" fill="#e3e7f2"></path><path d="m312 431.820312c-3.074219 20.945313-21.042969 36.46875-42.214844 36.46875h-125.269531c-18.851563 0-34.132813-15.28125-34.132813-34.132812h-8.535156c-9.425781 0-17.066406-7.640625-17.066406-17.066406v-59.734375c0-1.613281.914062-3.09375 2.359375-3.816407 1.445313-.722656 3.175781-.566406 4.46875.40625l22.453125 25.597657c3.824219 2.871093 8.683594 4.003906 13.386719 3.125 27.691406-6.058594 54.945312-13.964844 81.578125-23.671875 7.976562-2.699219 16.136718-4.824219 24.414062-6.367188 16.964844-3.078125 35.839844-4.878906 51.371094 3.882813 19.355469 10.882812 31.058594 31.617187 30.371094 53.8125zm0 0" fill="#e3e7f2"></path><path d="m246.820312 232.179688c.046876 22.539062-17.441406 41.226562-39.933593 42.667968-12.042969.777344-22.597657 1.546875-24.601563 2.117188-5.480468 1.585937-10.761718 4.078125-16.214844 5.886718-7.683593 2.679688-15.363281 5.367188-23.039062 8.054688-15.15625 5.316406-30.304688 10.644531-45.449219 15.992188-4.394531 1.554687-8.8125 3.0625-13.199219 4.660156-17.710937 6.425781-37.277343-2.714844-43.71875-20.421875 0 0 100.867188-36.691407 100.804688-36.761719-4.296875-5.019531-10.277344-8.304688-16.816406-9.238281l-112.402344-16.027344c-1.121094-.160156-2.136719-.757813-2.816406-1.664063-.679688-.90625-.972656-2.042968-.8125-3.164062l10.242187-71.816406c.226563-1.601563 1.335938-2.9375 2.867188-3.449219 1.535156-.511719 3.222656-.117187 4.367187 1.023437l18.578125 27.714844c3.886719 5.789063 10.90625 8.632813 17.722657 7.179688 1.597656-.335938 99.054687-23.1875 108.851562-25.703125 9.5625-2.816407 19.652344-3.34375 29.457031-1.546875 13.398438 2.933594 25.339844 10.484375 33.734375 21.335937 7.296875 9.496094 11.601563 20.949219 12.363282 32.902344zm0 0" fill="#e3e7f2"></path><g fill="#fff"><path d="m233.441406 352.628906c-8.277344 1.542969-16.4375 3.667969-24.414062 6.367188-21.253906 7.074218-44.996094 15.230468-68.921875 20.8125 3.753906 2.65625 8.421875 3.6875 12.945312 2.859375 27.691407-6.058594 54.945313-13.964844 81.578125-23.671875 7.976563-2.699219 16.132813-4.824219 24.414063-6.367188 3.234375-.589844 6.542969-1.089844 9.878906-1.519531-11.824219-1.527344-23.828125-1.011719-35.480469 1.519531zm0 0"></path><path d="m211.074219 12.609375c-1.292969-.96875-3.019531-1.125-4.464844-.402344-1.445313.722657-2.359375 2.199219-2.359375 3.816407v59.734374c0 9.425782 7.640625 17.066407 17.066406 17.066407h8.53125c0 18.851562 15.285156 34.132812 34.136719 34.132812h25.597656c-18.851562 0-34.132812-15.28125-34.132812-34.132812h-8.53125c-9.425781 0-17.070313-7.640625-17.070313-17.066407v-41.738281zm0 0"></path><path d="m272.515625 41.332031c27.691406-6.058593 54.945313-13.96875 81.578125-23.671875 7.976562-2.695312 16.136719-4.824218 24.414062-6.363281 3.234376-.589844 6.546876-1.09375 9.882813-1.519531-11.828125-1.527344-23.828125-1.015625-35.480469 1.519531-8.28125 1.539063-16.4375 3.667969-24.414062 6.363281-21.257813 7.074219-44.996094 15.234375-68.925782 20.816406 3.753907 2.65625 8.421876 3.6875 12.945313 2.855469zm0 0"></path><path d="m135.984375 434.15625h-8.535156c-9.425781 0-17.066407-7.640625-17.066407-17.066406v-41.746094l-18.773437-21.398438c-1.292969-.972656-3.023437-1.128906-4.46875-.40625-1.445313.722657-2.359375 2.203126-2.359375 3.816407v59.734375c0 9.425781 7.640625 17.066406 17.066406 17.066406h8.535156c0 18.851562 15.28125 34.132812 34.132813 34.132812h25.601563c-18.851563 0-34.132813-15.28125-34.132813-34.132812zm0 0"></path><path d="m40.664062 291.136719c3.089844 8.511719 9.433594 15.449219 17.636719 19.28125 8.207031 3.832031 17.597657 4.25 26.105469 1.15625l1.382812-.484375c-9.066406-3.546875-16.171874-10.8125-19.523437-19.953125"></path><path d="m37.847656 229.109375c-1.121094-.160156-2.132812-.757813-2.8125-1.664063-.679687-.90625-.972656-2.042968-.8125-3.164062l7.261719-51.246094-15.4375-23.039062c-1.144531-1.140625-2.832031-1.535156-4.367187-1.023438-1.53125.511719-2.640626 1.847656-2.867188 3.449219l-10.242188 71.816406c-.160156 1.121094.132813 2.257813.8125 3.164063.679688.90625 1.695313 1.507812 2.816407 1.664062l112.441406 16.027344"></path><path d="m87.972656 184.933594c1.597656-.335938 99.054688-23.1875 108.851563-25.703125 1.707031-.4375 3.414062-.777344 5.1875-1.125-.449219-.113281-.851563-.316407-1.328125-.421875-9.804688-1.796875-19.894532-1.269532-29.457032 1.546875-7.679687 1.988281-69.769531 16.570312-96.582031 22.84375 3.851563 2.769531 8.683594 3.808593 13.328125 2.859375zm0 0"></path><path d="m334.972656 382.964844.007813-.007813h-.007813zm0 0"></path><path d="m144.515625 459.757812h117v17.066407h-117zm0 0"></path></g><path d="m212.78125 459.757812c-2.257812.03125-4.421875.914063-6.058594 2.472657l-1.023437 1.28125c-.324219.476562-.582031.992187-.765625 1.535156-.25.484375-.421875 1-.511719 1.535156-.097656.566407-.152344 1.136719-.171875 1.707031.03125 2.261719.917969 4.421876 2.472656 6.058594.816406.773438 1.773438 1.378906 2.816406 1.792969 3.183594 1.289063 6.824219.585937 9.300782-1.792969.773437-.816406 1.382812-1.769531 1.792968-2.816406.4375-1.023438.667969-2.125.683594-3.242188.023438-2.269531-.867187-4.453124-2.472656-6.058593s-3.789062-2.496094-6.0625-2.472657zm0 0" fill="#428dff"></path><path d="m443.183594 33.089844h-9.226563c-6.109375-10.546875-14.898437-19.289063-25.480469-25.34375-17.917968-10.144532-38.945312-8.140625-57.085937-4.847656-8.683594 1.609374-17.238281 3.835937-25.601563 6.664062l-8.53125 2.859375c-23.484374 8.453125-47.511718 15.308594-71.921874 20.523437-2.09375.398438-4.265626-.007812-6.074219-1.144531l-21.769531-24.8125c-.386719-.449219-.820313-.851562-1.296876-1.203125-3.878906-2.910156-9.066406-3.378906-13.402343-1.210937-4.335938 2.167969-7.078125 6.601562-7.078125 11.449219v59.734374c0 14.136719 11.460937 25.597657 25.601562 25.597657h.851563c4.082031 19.855469 21.546875 34.113281 41.816406 34.132812h128c9.425781 0 17.066406 7.644531 17.066406 17.070313v49.242187c-19.480469-15.277343-43.511719-23.601562-68.269531-23.644531h-96.792969c-.929687-1.425781-1.707031-2.902344-2.78125-4.265625-9.582031-12.492187-23.28125-21.1875-38.664062-24.535156-11.113281-2.128907-22.570313-1.574219-33.425781 1.613281-10.238282 2.628906-107.894532 25.488281-108.492188 25.601562-3.414062.730469-6.929688-.6875-8.875-3.585937l-18.601562-27.714844c-.316407-.453125-.675782-.867187-1.074219-1.246093-3.433594-3.421876-8.503907-4.609376-13.097657-3.074219-4.597656 1.539062-7.929687 5.539062-8.613281 10.335937l-10.230469 71.800782c-.488281 3.363281.382813 6.785156 2.425782 9.507812 2.039062 2.722656 5.078125 4.519531 8.445312 4.996094l5.511719.753906v16.613281c0 4.710938 3.820313 8.53125 8.535156 8.53125 4.710938 0 8.53125-3.820312 8.53125-8.53125v-14.183593l86.554688 12.339843c-23.492188 8.578125-63.515625 23.175781-82.390625 30.003907-2.132813.769531-3.871094 2.355468-4.832032 4.410156-.960937 2.054687-1.0625 4.40625-.285156 6.539062 3.863282 10.644532 11.800782 19.316406 22.066406 24.101563 10.261719 4.789062 22.007813 5.296875 32.648438 1.421875 2.96875-1.085938 5.972656-2.125 8.949219-3.167969l72.535156-25.453125c2.457031-.855469 4.890625-1.777344 7.320313-2.722656 2.824218-1.109375 5.640624-2.226563 8.535156-3.0625 3.90625-1.128906 13.753906-3.203125 19.046875-4.320313l2.175781-.460937c.25.066406.507812.117187.765625.15625h82.910156c32.976563.035156 59.695313 26.757812 59.734375 59.730468v34.132813h-34.824218c-6.109376-10.546875-14.902344-19.289063-25.480469-25.34375-17.921875-10.136719-38.945313-8.140625-57.089844-4.84375-8.679687 1.605469-17.234375 3.832031-25.597656 6.664063l-8.535157 2.855468c-23.484374 8.441406-47.511718 15.28125-71.917968 20.480469-2.101563.402344-4.273438-.007813-6.085938-1.140625l-21.757812-24.816406c-.390625-.429688-.824219-.820313-1.296875-1.160156-3.878907-2.910157-9.070313-3.378907-13.40625-1.210938-4.335938 2.171875-7.074219 6.601562-7.074219 11.449219v59.734375c0 14.140625 11.460938 25.601562 25.597656 25.601562h.855469c4.078125 19.851563 21.542969 34.109375 41.8125 34.132813h34.132813c4.714843 0 8.535156-3.820313 8.535156-8.535157 0-4.710937-3.820313-8.53125-8.535156-8.53125h-34.132813c-10.808594-.046874-20.425781-6.875-24.03125-17.066406h81.070313c4.710937 0 8.53125-3.820312 8.53125-8.535156 0-4.710938-3.820313-8.53125-8.53125-8.53125h-99.707032c-4.710937 0-8.53125-3.820312-8.53125-8.535156v-48.253906l14.328125 16.332031c.386719.445312.820313.847656 1.296875 1.203125 5.75 4.292968 13.03125 5.992187 20.085938 4.683594 25.179687-5.347657 49.964844-12.402344 74.191406-21.109376l8.53125-2.851562c7.585938-2.574219 15.34375-4.601562 23.21875-6.066406 15.15625-2.757813 32.425781-4.558594 45.652344 2.910156 16.589844 9.335938 26.617187 27.113281 26.027344 46.136719-.085938 3.050781 1.457031 5.914062 4.054687 7.515625 2.59375 1.601562 5.847656 1.695312 8.53125.246094 2.683594-1.445313 4.394531-4.214844 4.480469-7.265626.164062-6.429687-.578125-12.855468-2.199219-19.082031h104.601563c5.097656.023438 10.179687.597657 15.152343 1.707031 25.5 5.9375 45.421875 25.824219 51.40625 51.3125 1.109375 5.007813 1.683594 10.121094 1.707031 15.25v34.132813h-69.121093c-4.035157-19.882813-21.527344-34.160156-41.8125-34.132813h-119.464844c-.84375.039063-1.675781.207032-2.46875.492188v-.492188h-14.597656c-4.714844 0-8.535157 3.820313-8.535157 8.53125 0 4.714844 3.820313 8.535157 8.535157 8.535157h14.597656v-.496094c.792969.289063 1.625.453125 2.46875.496094h85.332031v25.597656c0 4.714844 3.820313 8.535156 8.53125 8.535156h145.070313c4.710937 0 8.53125-3.820312 8.53125-8.535156v-42.664063c-.046875-4.378906-.425781-8.75-1.125-13.074218.707031-1.214844 1.09375-2.589844 1.125-3.992188v-341.335937c-.042969-37.683594-30.582031-68.222657-68.265625-68.265625zm-76.800782 443.734375h17.066407c6.769531 0 13.265625 2.675781 18.074219 7.441406 2.671874 2.730469 4.710937 6.019531 5.972656 9.625h-41.113282zm0-102.402344v-34.132813c-.050781-42.394531-34.40625-76.746093-76.800781-76.800781h-82.941406c-.257813.039063-.511719.089844-.761719.15625-1.125-.238281-2.289062-.238281-3.414062 0l-2.304688.484375c-7.96875 1.707032-16.09375 3.414063-20.257812 4.625-3.410156.972656-6.707032 2.261719-10.015625 3.566406-2.160157.855469-4.320313 1.707032-6.605469 2.460938l-72.628906 25.488281c-3.0625 1.074219-6.125 2.140625-9.164063 3.25-10.203125 3.703125-21.628906.570313-28.519531-7.816406l41.003906-14.925781c54.554688-19.847656 54.554688-19.847656 55.730469-24.113282.746094-2.730468.09375-5.652343-1.75-7.800781-5.648437-6.59375-13.503906-10.90625-22.097656-12.132812l-108.222657-15.472657 8.039063-56.464843 11.886719 17.714843c5.804687 8.730469 16.367187 13.003907 26.609375 10.769532.527343-.109375 98.867187-23.125 109.171875-25.777344 8.265625-2.488281 17.003906-2.996094 25.5-1.476562 11.421875 2.523437 21.601562 8.957031 28.78125 18.191406 6.265625 8.164062 9.96875 18.003906 10.640625 28.273437.191406 3.046875 1.996093 5.761719 4.730469 7.121094 2.734374 1.359375 5.988281 1.15625 8.53125-.53125 2.546874-1.691406 3.996093-4.609375 3.804687-7.660156-.402344-5.511719-1.472656-10.957031-3.191406-16.210938h88.644531c24.902344-.015625 48.789062 9.875 66.394531 27.484375 17.609375 17.609375 27.492188 41.496094 27.472657 66.398438v85.804687c-2.847657-.285156-5.707032-.472656-8.53125-.472656zm128 34.28125c-10.753906-14.230469-25.664062-24.765625-42.667968-30.148437v-89.464844c.003906-25.851563-9.054688-50.886719-25.597656-70.75v-65.78125c0-18.851563-15.28125-34.136719-34.132813-34.136719h-128c-10.8125-.042969-20.429687-6.875-24.03125-17.066406h81.066406c4.710938 0 8.535157-3.820313 8.535157-8.53125 0-4.714844-3.824219-8.535157-8.535157-8.535157h-99.703125c-4.714844 0-8.535156-3.820312-8.535156-8.53125v-48.257812l14.328125 16.332031c.386719.449219.824219.851563 1.296875 1.203125 5.75 4.296875 13.03125 5.996094 20.089844 4.6875 25.175781-5.351562 49.964844-12.402344 74.1875-21.113281l8.535156-2.847656c7.582031-2.578125 15.34375-4.605469 23.21875-6.070313 15.164062-2.753906 32.425781-4.554687 45.652344 2.910156 11.160156 6.363282 19.558594 16.640626 23.570312 28.84375 1.804688 5.582032 2.636719 11.433594 2.457032 17.296876-.066407 2.265624.769531 4.460937 2.320312 6.109374 1.554688 1.644532 3.699219 2.605469 5.964844 2.671876 4.679687.054687 8.566406-3.609376 8.78125-8.285157.167968-6.433593-.574219-12.855469-2.203125-19.082031h2.203125c28.265625.027344 51.171875 22.933594 51.199218 51.199219zm0 0" fill="#428dff"></path><path d="m381.742188 33.261719-42.667969 8.53125c-4.292969.875-7.230469 4.859375-6.789063 9.222656.4375 4.359375 4.113282 7.679687 8.496094 7.675781.574219.003906 1.148438-.054687 1.707031-.171875l6.828125-1.367187v1.539062c0 4.710938 3.820313 8.53125 8.53125 8.53125 4.714844 0 8.535156-3.820312 8.535156-8.53125v-4.949218l18.773438-3.757813c2.988281-.609375 5.421875-2.765625 6.390625-5.65625.964844-2.894531.3125-6.082031-1.707031-8.363281-2.023438-2.285156-5.109375-3.3125-8.097656-2.703125zm0 0" fill="#428dff"></path><path d="m194.007812 186.859375-42.664062 8.535156c-4.296875.871094-7.234375 4.859375-6.792969 9.21875.441407 4.363281 4.113281 7.679688 8.5 7.675781.570313.003907 1.144531-.050781 1.707031-.167968l6.824219-1.367188v1.535156c0 4.714844 3.820313 8.535157 8.535157 8.535157 4.710937 0 8.53125-3.820313 8.53125-8.535157v-4.949218l18.773437-3.753906c4.476563-1.054688 7.308594-5.46875 6.40625-9.976563-.898437-4.511719-5.210937-7.496094-9.75-6.75zm0 0" fill="#428dff"></path><path d="m246.917969 400.023438v-4.949219l18.769531-3.753907c3.078125-.507812 5.636719-2.652343 6.667969-5.59375 1.035156-2.941406.378906-6.214843-1.707031-8.535156-2.085938-2.316406-5.269532-3.3125-8.304688-2.597656l-42.667969 8.535156c-4.28125.867188-7.214843 4.835938-6.792969 9.183594.421876 4.351562 4.0625 7.679688 8.433594 7.710938.574219.003906 1.144532-.054688 1.707032-.171876l6.824218-1.363281v1.535157c0 4.714843 3.820313 8.535156 8.535156 8.535156 4.710938 0 8.535157-3.820313 8.535157-8.535156zm0 0" fill="#428dff"></path></svg>